<?xml version="1.0" encoding="UTF-8" standalone="no"?>
<svg
   width="256.97604"
   height="77.537529"
   viewBox="0 0 256.97604 77.537529"
   version="1.1"
   id="svg82"
   xmlns:xlink="http://www.w3.org/1999/xlink"
   xmlns="http://www.w3.org/2000/svg"
   xmlns:svg="http://www.w3.org/2000/svg">
  <!-- Generator: sketchtool 57.1 (101010) - https://sketch.com -->
  <title
     id="title44">B573E62F-F4AC-47FC-8ADA-55F8165C46A2</title>
  <desc
     id="desc46">Created with sketchtool.</desc>
  <defs
     id="defs49">
    <polygon
       id="path-1"
       points="15.415913,16.691997 0.29430971,16.691997 0.29430971,0.040500654 15.415913,0.040500654 " />
  </defs>
  <g
     id="Welcome"
     stroke="none"
     stroke-width="1"
     fill="none"
     fill-rule="evenodd"
     transform="translate(0,-0.14668065)">
    <g
       id="Home-Page-Final"
       transform="translate(-52,-67)">
      <g
         id="TMEIC-Logo"
         transform="translate(52,67)">
        <g
           id="Group-44">
          <g
             id="Group-43">
            <path
               d="m 84.138601,65.872854 c 0.394213,-1.477838 0.371778,-2.86742 -1.130904,-2.86742 -1.872172,0 -2.469216,2.24089 -2.636792,2.86742 z m 2.813065,1.928315 h -7.095848 c -0.370406,1.390042 0.212902,2.666545 2.270964,2.666545 1.247657,0 2.614357,-0.448178 3.642243,-0.91934 l -0.641914,2.668384 c -1.2939,0.425654 -2.745303,0.672497 -3.99296,0.672497 -3.56166,0 -5.518078,-2.803986 -4.618391,-6.380677 0.893734,-3.553708 3.197664,-5.654399 7.066088,-5.654399 1.086949,0 5.132105,0.303382 3.596915,6.095222 z"
               id="Fill-2"
               fill="#000000"
               style="fill:#ffffff" />
            <polygon
               id="Fill-1"
               fill="#000000"
               points="58.873636,55.714286 62.136656,55.714286 61.259878,67.927675 61.307121,67.927675 66.828548,55.716114 70.714528,55.716114 69.722886,67.927675 69.770129,67.927675 75.477286,55.716114 78.991342,55.716114 71.014661,72.428571 66.52471,72.428571 67.840107,60.024141 67.791938,60.024141 62.339986,72.428571 57.852814,72.428571 "
               style="fill:#ffffff" />
            <path
               d="m 144.74772,65.872854 c 0.39513,-1.477838 0.37361,-2.86742 -1.12862,-2.86742 -1.87263,0 -2.4715,2.24089 -2.63908,2.86742 z m 2.81352,1.928315 h -7.09539 c -0.36995,1.390042 0.2129,2.666545 2.27142,2.666545 1.24766,0 2.61481,-0.448178 3.64179,-0.91934 l -0.64238,2.668384 c -1.29298,0.425654 -2.74438,0.672497 -3.99296,0.672497 -3.56074,0 -5.51716,-2.803986 -4.61839,-6.380677 0.89419,-3.553708 3.19767,-5.654399 7.06792,-5.654399 1.08558,0 5.13119,0.303382 3.596,6.095222 z"
               id="Fill-4"
               fill="#000000"
               style="fill:#ffffff" />
            <path
               d="m 100.37371,70.333078 c 1.50177,0 2.38726,-2.106208 2.74622,-3.450283 0.49677,-1.861203 0.61673,-3.608868 -0.86352,-3.608868 -1.6176,0 -2.22197,1.747665 -2.718285,3.608868 -0.323704,1.209392 -0.829177,3.450283 0.835585,3.450283 z m 4.84183,2.375574 h -3.37348 c 0.0737,-0.447259 0.18817,-1.052185 0.40382,-1.860284 h -0.0458 c -0.56042,0.718464 -1.72291,2.040934 -3.826761,2.040934 -2.702722,0 -3.541056,-2.578748 -2.547967,-6.299316 0.837418,-3.137707 2.731568,-5.735761 5.759828,-5.735761 1.68811,0 2.43121,0.850389 2.58963,1.903953 h 0.0462 l 1.83051,-6.857815 h 3.65049 z"
               id="Fill-6"
               fill="#000000"
               style="fill:#ffffff" />
            <path
               d="m 113.83796,63.318653 h 0.0472 c 1.07459,-1.255818 1.85752,-2.285938 3.96091,-2.285938 h 0.53066 l -0.87268,3.271011 c -0.36994,-0.08918 -0.68037,-0.133764 -1.18813,-0.133764 -2.12629,0 -2.85931,1.793632 -3.31442,3.495789 l -1.3461,5.043039 h -3.65048 l 3.11617,-11.676075 h 3.32632 z"
               id="Fill-8"
               fill="#000000"
               style="fill:#ffffff" />
            <path
               d="m 121.94256,55.90018 h 3.6514 l -0.83742,3.137707 h -3.65186 z m -1.36945,5.132674 h 3.65003 l -3.11571,11.675615 h -3.65094 z"
               id="Fill-10"
               fill="#000000"
               style="fill:#ffffff" />
            <polygon
               id="Fill-12"
               fill="#000000"
               points="134.23498,61.032851 137.85845,61.032851 130.91095,72.708466 126.93951,72.708466 126.18039,61.032851 129.51312,61.032851 129.77638,69.216354 129.82263,69.216354 "
               style="fill:#ffffff" />
            <path
               d="m 159.90078,55.90018 h 3.65231 l -0.83741,3.137707 h -3.65278 z m -1.36899,5.132674 h 3.65094 l -3.11617,11.675615 h -3.6514 z"
               id="Fill-14"
               fill="#000000"
               style="fill:#ffffff" />
            <path
               d="m 167.99462,62.98374 h 0.0467 c 0.89603,-1.279262 2.04753,-2.129651 3.96503,-2.129651 2.6574,0 3.03421,1.881889 2.41244,4.212415 l -2.04066,7.642012 h -3.65094 l 1.91979,-7.193834 c 0.39009,-1.457153 -0.17994,-1.836841 -0.91938,-1.836841 -1.17852,0 -1.85797,0.985533 -2.2586,2.487734 l -1.7458,6.542941 h -3.65232 l 3.11663,-11.675615 h 3.32769 z"
               id="Fill-16"
               fill="#000000"
               style="fill:#ffffff" />
            <path
               d="m 180.49801,70.333078 c 1.50222,0 2.38955,-2.106208 2.74897,-3.450283 0.49631,-1.861203 0.61535,-3.608868 -0.86398,-3.608868 -1.6176,0 -2.22197,1.747665 -2.71737,3.608868 -0.32371,1.209392 -0.83009,3.450283 0.83238,3.450283 z m 4.84503,2.375574 h -3.37486 c 0.0733,-0.447259 0.18773,-1.052185 0.40429,-1.860284 h -0.0467 c -0.56133,0.718464 -1.72245,2.040934 -3.82539,2.040934 -2.70455,0 -3.54243,-2.578748 -2.54888,-6.299316 0.83696,-3.137707 2.73294,-5.735761 5.75983,-5.735761 1.68765,0 2.43167,0.850389 2.59009,1.903953 h 0.0472 l 1.82959,-6.857815 h 3.65048 z"
               id="Fill-18"
               fill="#000000"
               style="fill:#ffffff" />
            <path
               d="m 195.37297,70.759559 h -0.0458 c -0.8951,1.276503 -2.04478,2.12965 -3.96503,2.12965 -2.65739,0 -3.03238,-1.884646 -2.40969,-4.214253 l 2.03791,-7.642012 h 3.65186 l -1.92162,7.193834 c -0.38734,1.457153 0.18177,1.836841 0.91938,1.836841 1.17852,0 1.85889,-0.985533 2.26043,-2.485895 l 1.7458,-6.54478 h 3.65186 l -3.11616,11.675615 h -3.3277 z"
               id="Fill-20"
               fill="#000000"
               style="fill:#ffffff" />
            <path
               d="m 210.4867,63.968625 c -0.86901,-0.380607 -1.70368,-0.62745 -2.76591,-0.62745 -0.94776,0 -1.48436,0.446799 -1.59196,0.851769 -0.19138,0.717544 0.27288,0.963468 2.06951,1.680093 1.12861,0.449557 2.19633,1.209851 1.60982,3.407993 -0.69228,2.598054 -2.97286,3.607949 -5.39858,3.607949 -1.06451,0 -2.65144,-0.11216 -3.80341,-0.560338 l 0.82185,-2.734576 c 0.74127,0.514371 1.77236,0.80718 2.79018,0.80718 1.70872,0 1.98068,-0.581482 2.11758,-1.098151 0.13736,-0.516209 -0.74951,-0.740528 -2.15421,-1.367058 -1.13319,-0.51621 -2.1185,-1.503121 -1.56266,-3.587724 0.33561,-1.253979 1.85844,-3.493951 5.43978,-3.493951 1.50268,0 2.67937,0.268447 3.2256,0.470243 z"
               id="Fill-22"
               fill="#000000"
               style="fill:#ffffff" />
            <path
               d="m 213.08357,61.032853 h 2.08004 l 0.93265,-3.49579 3.56074,4.6e-4 -0.93448,3.49533 h 2.35842 l -0.66344,2.487733 H 218.06 l -1.43079,5.356074 c -0.30402,1.143199 0.1433,1.456234 0.83604,1.456234 0.51005,0 0.85573,-0.08872 1.26734,-0.245924 l -0.66343,2.486814 c -0.40612,0.134684 -1.44774,0.315334 -2.6258,0.315334 -1.89553,0 -3.29611,-0.896816 -2.61482,-3.45304 l 1.57961,-5.915492 h -1.9871 z"
               id="Fill-24"
               fill="#000000"
               style="fill:#ffffff" />
            <path
               d="m 226.13516,63.318653 h 0.0467 c 1.07551,-1.255818 1.85798,-2.285938 3.96137,-2.285938 h 0.53111 l -0.87358,3.271011 c -0.36949,-0.08918 -0.68038,-0.133764 -1.18768,-0.133764 -2.1272,0 -2.85885,1.793632 -3.31396,3.495789 l -1.3461,5.043039 H 220.303 l 3.11525,-11.676075 h 3.32861 z"
               id="Fill-26"
               fill="#000000"
               style="fill:#ffffff" />
            <g
               id="Group-30"
               transform="translate(228.01217,60.992215)">
              <mask
                 id="mask-2"
                 fill="#ffffff">
                <use
                   xlink:href="#path-1"
                   id="use65" />
              </mask>
              <g
                 id="Clip-29" />
              <path
                 d="m 2.2937659,14.047102 c 1.2261379,0 2.1551272,-1.321551 2.4252622,-2.330527 L 3.6522241,0.04050065 H 7.1800029 L 7.4428121,7.9518791 h 0.04487 L 11.857,0.04050065 h 3.558913 L 7.7601062,12.792663 C 6.1292239,15.527699 4.5464164,16.692042 2.5130789,16.692042 H 0.29430971 l 0.81910399,-2.64494 z"
                 id="Fill-28"
                 fill="#000000"
                 mask="url(#mask-2)"
                 style="fill:#ffffff" />
            </g>
            <polygon
               id="Fill-31"
               fill="#000000"
               points="31.087034,40.26423 40.112287,6.4559714 52.341156,6.4559714 53.750894,1.1729856 0,1.1729856 6.4846113,6.4559714 23.253579,6.4559714 14.228784,40.26423 "
               style="fill:#ffffff" />
            <polygon
               id="Fill-33"
               fill="#000000"
               points="181.84474,17.547346 175.78182,40.262393 192.6419,40.262393 198.70391,17.547346 "
               style="fill:#ffffff" />
            <polygon
               id="Fill-35"
               fill="#000000"
               points="68.810735,14.897809 77.129517,40.262392 78.103376,40.262392 98.123579,14.799439 91.328541,40.26423 108.18725,40.26423 118.62132,1.1729856 100.90322,1.1729856 86.105322,19.808002 80.11199,1.1729856 56.334165,1.1729856 62.817861,6.4559714 53.794897,40.26423 62.039506,40.26423 "
               style="fill:#ffffff" />
            <polygon
               id="Fill-37"
               fill="#000000"
               points="143.92656,22.830791 164.9023,22.830791 166.31158,17.547346 145.33538,17.547346 148.29679,6.4559714 173.32593,6.4559714 174.73567,1.1729856 124.95576,1.1729856 131.43946,6.4559714 122.41649,40.26423 164.29976,40.26423 165.71088,34.981704 140.68311,34.981704 "
               style="fill:#ffffff" />
            <polygon
               id="Fill-39"
               fill="#ff0000"
               points="198.82016,17.099168 203.07044,1.1729856 179.2711,1.1729856 " />
            <path
               d="m 205.3528,19.190344 c -1.396,5.229664 -0.23808,10.707091 3.29794,14.728283 3.85606,4.392145 11.61717,6.882637 21.22253,6.882637 11.0705,0 17.19203,-2.082305 17.19203,-2.082305 l 1.94314,-7.28163 c 0,0 -5.41827,2.314438 -14.64361,2.314438 -13.05163,0 -15.85508,-8.582037 -13.99939,-14.573374 2.44495,-7.898508 9.88144,-13.0900195 21.22344,-13.0900195 9.0335,0 13.64319,2.1572308 13.64319,2.1572308 l 1.74397,-6.533288 c 0,0 -5.17926,-1.56563565 -15.81113,-1.56563565 -18.99552,0 -32.42901,6.36734715 -35.81211,19.04366335"
               id="Fill-41"
               fill="#000000"
               style="fill:#ffffff" />
          </g>
        </g>
      </g>
    </g>
  </g>
</svg>
